<?xml version="1.0" encoding="UTF-8"?>
<svg xmlns="http://www.w3.org/2000/svg" xmlns:xlink="http://www.w3.org/1999/xlink" width="20px" height="20px" viewBox="0 0 20 20" version="1.1">
<g id="surface1">
<path style=" stroke:none;fill-rule:nonzero;fill:rgb(100%,100%,100%);fill-opacity:1;" d="M 17.390625 1.738281 C 17.863281 1.738281 18.261719 2.136719 18.261719 2.609375 L 18.261719 17.390625 C 18.261719 17.863281 17.863281 18.261719 17.390625 18.261719 L 2.609375 18.261719 C 2.136719 18.261719 1.738281 17.863281 1.738281 17.390625 L 1.738281 2.609375 C 1.738281 2.136719 2.136719 1.738281 2.609375 1.738281 L 17.390625 1.738281 M 17.390625 0 L 2.609375 0 C 1.175781 0 0 1.175781 0 2.609375 L 0 17.390625 C 0 18.824219 1.175781 20 2.609375 20 L 17.390625 20 C 18.824219 20 20 18.824219 20 17.390625 L 20 2.609375 C 20 1.175781 18.824219 0 17.390625 0 Z M 17.390625 0 "/>
</g>
</svg>
