<?xml version="1.0" encoding="UTF-8"?>
<svg xmlns="http://www.w3.org/2000/svg" xmlns:xlink="http://www.w3.org/1999/xlink" width="23px" height="20px" viewBox="0 0 23 20" version="1.1">
<g id="surface1">
<path style=" stroke:none;fill-rule:nonzero;fill:rgb(100%,100%,100%);fill-opacity:1;" d="M 6.207031 6.507812 L 3.796875 8.96875 L 10.425781 15.738281 L 22.292969 3.621094 L 19.886719 1.164062 L 10.425781 10.816406 Z M 6.207031 6.507812 "/>
<path style=" stroke:none;fill-rule:nonzero;fill:rgb(100%,100%,100%);fill-opacity:1;" d="M 17.890625 17.390625 C 17.890625 17.863281 17.5 18.261719 17.035156 18.261719 L 2.554688 18.261719 C 2.09375 18.261719 1.703125 17.863281 1.703125 17.390625 L 1.703125 2.609375 C 1.703125 2.136719 2.09375 1.738281 2.554688 1.738281 L 16.957031 1.738281 L 18.308594 0.359375 C 17.921875 0.128906 17.484375 0.00390625 17.035156 0 L 2.554688 0 C 1.148438 0 0 1.175781 0 2.609375 L 0 17.390625 C 0 18.824219 1.148438 20 2.554688 20 L 17.035156 20 C 18.441406 20 19.59375 18.824219 19.59375 17.390625 L 19.59375 8.84375 L 17.890625 10.582031 Z M 17.890625 17.390625 "/>
</g>
</svg>
